<?xml version="1.0" standalone="no"?>
<!DOCTYPE svg PUBLIC "-//W3C//DTD SVG 20010904//EN"
 "http://www.w3.org/TR/2001/REC-SVG-20010904/DTD/svg10.dtd">
<svg version="1.0" xmlns="http://www.w3.org/2000/svg"
 width="626.000000pt" height="417.000000pt" viewBox="0 0 626.000000 417.000000"
 preserveAspectRatio="xMidYMid meet">

<g transform="translate(0.000000,417.000000) scale(0.100000,-0.100000)"
fill="#000000" stroke="none">
<path d="M0 2085 l0 -2085 3130 0 3130 0 0 2085 0 2085 -3130 0 -3130 0 0
-2085z m3347 1688 c25 -4 34 -2 39 10 5 15 9 15 34 2 20 -10 42 -44 84 -131
l57 -117 -38 -39 c-43 -44 -54 -45 -116 -18 -57 25 -190 60 -229 60 -39 0 -92
39 -96 70 -1 14 -5 35 -7 47 -6 26 36 63 72 63 18 0 23 4 20 14 -13 33 59 67
113 54 19 -5 50 -11 67 -15z m-47 -305 c0 -5 17 -8 38 -8 36 0 62 -14 62 -32
0 -4 -8 -8 -18 -8 -33 0 -42 -21 -42 -104 0 -77 1 -79 19 -62 17 16 18 15 17
-6 -1 -19 -8 -24 -43 -29 -65 -8 -65 -22 -1 -17 37 3 65 11 78 23 19 18 20 18
20 -2 0 -11 -6 -26 -14 -32 -21 -18 -29 -66 -16 -91 14 -26 1 -45 -45 -64 -17
-8 -47 -27 -66 -44 -35 -30 -96 -52 -136 -48 -27 3 -63 34 -63 54 0 9 -7 23
-16 33 -21 24 -28 170 -7 162 12 -5 18 9 14 31 -1 5 4 13 10 17 10 6 10 11 1
22 -7 7 -9 17 -5 20 3 4 0 7 -9 7 -8 0 -15 7 -15 15 0 8 4 15 9 15 4 0 8 4 8
10 0 5 -8 7 -17 5 -10 -3 -4 1 12 9 17 7 45 17 63 21 27 6 32 4 32 -13 0 -11
6 -25 14 -31 8 -7 17 -27 20 -46 4 -19 17 -41 29 -50 30 -21 44 -19 19 3 -26
21 -62 143 -62 206 l0 47 55 -3 c30 -2 55 -6 55 -10z m196 -63 c1 -41 55 -145
95 -180 27 -26 24 -47 -18 -109 -35 -52 -37 -54 -59 -40 -12 9 -28 14 -36 13
-59 -8 -62 16 -8 67 53 50 57 68 27 112 -32 47 -46 185 -18 180 11 -2 16 -15
17 -43z m54 25 c-6 -11 -13 -20 -16 -20 -2 0 0 9 6 20 6 11 13 20 16 20 2 0 0
-9 -6 -20z m-863 -120 c22 -10 43 -26 46 -35 8 -19 -17 -20 -40 -1 -10 8 -29
24 -43 35 -32 26 -15 27 37 1z m-122 -27 c-14 -33 -17 -112 -7 -142 14 -40 7
-40 -14 1 -22 42 -24 136 -4 148 23 15 33 12 25 -7z m77 -38 c-3 -24 -1 -27
20 -22 20 5 21 4 7 -6 -14 -11 -31 -54 -26 -68 1 -3 -4 -13 -11 -22 -11 -13
-10 -17 5 -26 15 -9 15 -12 4 -20 -7 -5 -10 -14 -6 -21 5 -8 0 -7 -14 2 -17
10 -18 14 -7 16 13 3 12 8 -6 33 -21 28 -21 30 -5 83 10 30 17 58 16 63 -3 18
2 24 14 20 7 -2 11 -16 9 -32z m88 -165 c0 -5 -4 -10 -10 -10 -5 0 -10 5 -10
10 0 6 5 10 10 10 6 0 10 -4 10 -10z m826 -80 c14 0 24 -6 24 -14 0 -10 -17
-16 -52 -21 -29 -3 -68 -11 -86 -17 -18 -5 -36 -8 -39 -4 -5 5 28 43 34 39 8
-6 63 11 63 19 0 6 7 7 16 4 9 -3 27 -6 40 -6z m56 -57 c10 -3 16 -9 13 -13
-3 -5 9 -8 27 -8 18 1 78 -3 132 -7 88 -7 105 -12 150 -41 27 -19 54 -41 59
-50 9 -16 18 -54 62 -264 13 -63 36 -149 51 -190 15 -41 29 -94 30 -117 3 -48
-29 -133 -50 -133 -8 0 -11 -10 -8 -30 2 -17 -1 -36 -7 -44 -9 -11 -7 -15 9
-19 18 -5 21 -12 18 -60 -2 -31 -7 -53 -12 -49 -5 3 -6 -2 -3 -12 5 -12 2 -16
-10 -14 -10 2 -18 -3 -19 -9 -1 -7 -2 -19 -3 -27 -1 -15 -41 -10 -41 5 0 21 2
24 15 21 15 -3 28 25 15 33 -6 4 -10 1 -10 -4 0 -15 -17 -14 -17 2 -4 64 -9
80 -30 90 -26 12 -33 26 -39 89 -5 43 -3 48 14 48 11 0 25 7 32 15 12 14 9 16
-23 13 -20 -1 -39 1 -43 5 -4 4 0 7 9 7 10 0 17 7 17 16 0 8 -4 13 -9 10 -5
-3 -11 8 -13 24 -4 24 0 31 19 37 l24 8 -37 37 c-44 44 -60 108 -43 170 5 22
8 52 5 66 -4 15 -2 51 2 80 8 45 7 52 -7 52 -24 0 -62 30 -55 42 5 8 1 9 -10
5 -10 -4 -27 -7 -39 -7 -31 0 -52 -51 -52 -124 0 -32 -4 -61 -10 -63 -5 -1
-20 24 -32 57 -23 63 -21 85 11 145 9 17 16 40 16 52 0 12 8 27 18 32 15 9 14
10 -9 11 -39 0 -53 -18 -79 -103 -22 -72 -23 -79 -8 -110 27 -56 32 -96 13
-103 -18 -7 -35 11 -34 36 0 10 3 8 9 -5 6 -14 9 -15 9 -5 1 9 -8 34 -19 55
-23 45 -21 125 5 175 8 16 15 42 15 59 0 16 8 37 17 47 17 17 16 17 -16 11
-43 -9 -41 -6 -58 -69 -29 -107 -34 -134 -31 -167 l4 -34 -19 24 c-26 32 -19
118 16 183 14 27 23 54 20 62 -3 8 0 20 6 28 9 11 7 15 -10 19 -12 3 -18 10
-14 17 4 6 14 8 24 5 9 -4 24 -10 33 -12z m-357 -53 c3 -5 -1 -10 -10 -10 -9
0 -13 5 -10 10 3 6 8 10 10 10 2 0 7 -4 10 -10z m164 1 c20 -5 21 -8 9 -18 -8
-7 -24 -14 -36 -16 -12 -2 -25 -6 -28 -10 -4 -4 -13 -7 -20 -7 -10 0 -9 8 4
30 17 30 28 33 71 21z m-601 -285 c-3 -16 107 -126 126 -126 9 0 15 5 14 12
-2 6 6 14 17 16 11 2 26 9 34 16 17 13 121 18 121 5 0 -5 -5 -9 -11 -9 -5 0
-7 -4 -4 -10 3 -5 0 -10 -7 -10 -10 0 -10 -2 1 -9 7 -5 10 -14 7 -20 -4 -6 -3
-11 1 -11 5 0 19 18 33 40 13 21 25 38 27 37 1 -2 -4 -25 -11 -52 -15 -59 -48
-126 -70 -144 -9 -7 -13 -17 -10 -22 3 -5 -8 -9 -23 -9 -30 0 -100 -60 -87
-73 4 -4 1 -7 -6 -7 -7 0 -10 -3 -7 -6 4 -4 -3 -15 -15 -25 -11 -11 -18 -19
-14 -19 4 0 4 -4 1 -10 -3 -6 -17 1 -31 15 -14 14 -26 25 -28 25 -2 0 -4 -21
-4 -46 -1 -51 -9 -84 -21 -84 -8 0 -26 69 -37 145 -9 62 -9 66 1 89 5 10 4 21
-3 25 -5 3 -12 17 -14 31 -2 14 -9 24 -16 23 -6 -2 -11 0 -11 5 4 24 -2 42
-13 36 -7 -4 -8 -3 -4 5 5 7 9 36 11 64 4 61 8 88 18 103 8 14 38 14 35 0z
m729 -28 c-3 -7 -5 -2 -5 12 0 14 2 19 5 13 2 -7 2 -19 0 -25z m-873 -147 c-6
-6 -11 1 -18 29 l-7 25 15 -25 c8 -14 12 -27 10 -29z m-684 -72 c0 -5 -4 -9
-10 -9 -5 0 -10 7 -10 16 0 8 5 12 10 9 6 -3 10 -10 10 -16z m755 -9 c10 -11
14 -20 9 -20 -5 0 -15 9 -22 20 -7 11 -11 20 -9 20 2 0 12 -9 22 -20z m-696
-65 c0 -5 -4 -3 -9 5 -5 8 -9 22 -9 30 0 16 17 -16 18 -35z m2177 -18 c1 -12
2 -51 4 -87 1 -36 6 -86 11 -111 4 -25 9 -80 10 -122 1 -57 5 -74 15 -70 9 3
18 -13 29 -51 16 -55 16 -56 -19 -191 -20 -74 -36 -137 -36 -140 0 -12 -18 -4
-24 10 -18 48 -27 201 -17 299 10 102 10 106 -16 162 -33 73 -39 128 -23 218
17 91 63 149 66 83z m-1163 4 c-3 -11 -16 -30 -30 -43 l-25 -23 21 43 c22 43
43 57 34 23z m-997 0 c-7 -11 6 -44 30 -81 12 -18 9 -16 -9 5 -15 17 -26 24
-27 18 0 -22 -20 -14 -20 8 0 13 4 18 13 13 6 -4 4 2 -6 13 -18 21 -18 21 0
26 10 3 19 5 21 6 2 0 1 -3 -2 -8z m-70 -48 c-10 -10 -19 5 -10 18 6 11 8 11
12 0 2 -7 1 -15 -2 -18z m78 -55 c9 -35 7 -76 -4 -83 -5 -3 -10 2 -11 12 0 10
-2 35 -3 56 -2 41 8 50 18 15z m66 -72 c0 -43 -16 -66 -25 -37 -3 12 -12 19
-18 15 -7 -3 -1 4 12 16 21 18 23 24 13 41 -17 27 -14 38 3 15 8 -11 15 -34
15 -50z m1664 -8 c19 -29 33 -128 18 -128 -6 0 -13 6 -16 13 -3 6 -3 1 0 -13
5 -24 4 -24 -10 -6 -9 11 -16 16 -16 11 0 -4 -2 -6 -5 -3 -8 8 6 39 15 33 5
-3 8 8 8 25 -1 18 -6 30 -15 30 -10 0 -11 5 -3 19 15 29 -5 36 -31 10 -11 -11
-27 -36 -35 -55 -17 -41 -21 -42 -21 -9 0 14 3 25 8 25 5 0 9 6 9 14 0 17 46
56 66 56 7 0 20 -10 28 -22z m-730 -12 c-3 -9 -10 -16 -15 -16 -6 0 -5 9 1 21
13 24 24 20 14 -5z m-110 -2 c10 -25 -1 -29 -14 -5 -6 12 -7 21 -1 21 5 0 12
-7 15 -16z m-74 -49 c7 -25 22 -58 32 -73 17 -23 16 -22 -7 3 -15 17 -39 44
-54 60 -30 32 -30 55 -1 55 12 0 21 -13 30 -45z m-820 -17 c0 -5 -4 -8 -10 -8
-5 0 -10 10 -10 23 0 18 2 19 10 7 5 -8 10 -18 10 -22z m27 -67 c-3 -10 -5 -7
-6 7 0 13 -5 20 -11 17 -12 -7 -12 -3 -3 21 6 15 8 14 15 -6 5 -13 7 -31 5
-39z m1870 27 c-3 -8 -6 -5 -6 6 -1 11 2 17 5 13 3 -3 4 -12 1 -19z m23 -34
c0 -8 -4 -12 -10 -9 -5 3 -10 10 -10 16 0 5 5 9 10 9 6 0 10 -7 10 -16z
m-2110 -35 c0 -6 -4 -7 -10 -4 -5 3 -10 11 -10 16 0 6 5 7 10 4 6 -3 10 -11
10 -16z m50 11 c0 -5 -2 -10 -4 -10 -3 0 -8 5 -11 10 -3 6 -1 10 4 10 6 0 11
-4 11 -10z m1900 -25 c-7 -9 -15 -13 -17 -11 -6 6 20 36 26 30 2 -2 -2 -10 -9
-19z m-1853 -26 c-1 -19 -2 -19 -18 3 -10 12 -15 26 -12 31 8 13 32 -13 30
-34z m2023 -4 c0 -5 -5 -3 -10 5 -9 13 -11 13 -20 0 -8 -13 -10 -13 -10 2 0 9
6 18 13 21 12 4 27 -10 27 -28z m-2107 -13 c-5 -12 -7 -12 -15 2 -11 20 1 44
12 25 5 -6 6 -19 3 -27z m1097 28 c0 -5 -5 -10 -11 -10 -5 0 -7 5 -4 10 3 6 8
10 11 10 2 0 4 -4 4 -10z m1135 -66 c1 -20 7 -39 12 -42 14 -10 24 -100 14
-120 -5 -9 -12 -25 -15 -35 -4 -11 -11 -15 -18 -11 -8 5 -9 2 -4 -12 13 -30
16 -104 6 -104 -6 0 -10 18 -10 40 0 22 -4 40 -10 40 -5 0 -10 -18 -10 -40 0
-40 0 -40 -19 -23 -13 12 -19 29 -17 51 1 17 -1 32 -5 32 -8 0 4 58 25 119 9
24 14 47 11 51 -6 10 25 103 32 96 3 -3 7 -22 8 -42z m-1131 21 c-4 -8 -12
-15 -20 -15 -17 0 -18 17 -1 23 22 9 27 7 21 -8z m-26 -28 c15 6 15 5 3 -11
-11 -13 -16 -14 -22 -4 -5 7 -8 18 -8 23 0 6 3 5 5 -2 3 -7 13 -9 22 -6z m35
-27 c-3 -11 -9 -18 -13 -15 -5 3 -12 0 -15 -6 -4 -5 -13 -8 -21 -5 -9 4 -18
-3 -24 -17 -8 -20 -9 -19 -9 10 -1 28 2 31 23 27 13 -2 29 2 36 11 18 21 29
19 23 -5z m17 -58 c0 -15 -2 -15 -10 -2 -13 20 -13 33 0 25 6 -3 10 -14 10
-23z m-42 -13 c-3 -8 -7 -3 -11 10 -4 17 -3 21 5 13 5 -5 8 -16 6 -23z m-32
-19 c0 -12 -4 -16 -9 -11 -5 5 -6 14 -3 20 10 15 12 14 12 -9z m81 -32 c-3 -7
-5 -2 -5 12 0 14 2 19 5 13 2 -7 2 -19 0 -25z m-13 -234 c30 -12 14 -64 -19
-64 -3 0 -9 9 -15 21 -9 15 -8 24 1 35 13 16 12 16 33 8z"/>
<path d="M3487 3134 c-15 -8 -25 -19 -22 -23 8 -13 70 3 70 19 0 20 -16 21
-48 4z"/>
<path d="M3693 2883 c9 -2 23 -2 30 0 6 3 -1 5 -18 5 -16 0 -22 -2 -12 -5z"/>
<path d="M3869 2849 c-10 -6 -7 -9 14 -9 29 0 35 5 14 13 -8 3 -20 1 -28 -4z"/>
<path d="M3990 2196 c0 -2 15 -6 34 -8 19 -2 32 0 30 4 -5 8 -64 12 -64 4z"/>
<path d="M4010 2160 c0 -5 4 -10 9 -10 6 0 13 5 16 10 3 6 -1 10 -9 10 -9 0
-16 -4 -16 -10z"/>
<path d="M3980 2080 c0 -11 4 -20 9 -20 5 0 7 9 4 20 -3 11 -7 20 -9 20 -2 0
-4 -9 -4 -20z"/>
<path d="M2820 2271 c0 -5 5 -13 10 -16 6 -3 10 -2 10 4 0 5 -4 13 -10 16 -5
3 -10 2 -10 -4z"/>
<path d="M2916 2262 c-2 -4 -1 -14 5 -22 7 -12 9 -10 9 8 0 23 -5 28 -14 14z"/>
<path d="M2845 2140 c3 -5 8 -10 11 -10 2 0 4 5 4 10 0 6 -5 10 -11 10 -5 0
-7 -4 -4 -10z"/>
</g>
</svg>
