<?xml version="1.0" standalone="no"?>
<!DOCTYPE svg PUBLIC "-//W3C//DTD SVG 20010904//EN"
 "http://www.w3.org/TR/2001/REC-SVG-20010904/DTD/svg10.dtd">
<svg version="1.0" xmlns="http://www.w3.org/2000/svg"
 width="626.000000pt" height="352.000000pt" viewBox="0 0 626.000000 352.000000"
 preserveAspectRatio="xMidYMid meet">

<g transform="translate(0.000000,352.000000) scale(0.100000,-0.100000)"
fill="#000000" stroke="none">
<path d="M3670 3499 c0 -19 30 -161 35 -167 3 -3 106 18 125 26 8 3 26 7 40 7
41 2 144 26 157 37 6 5 22 6 35 3 12 -3 48 1 78 8 50 11 55 15 52 37 -8 72 -6
70 -87 70 l-76 0 16 -31 c9 -17 15 -35 13 -41 -2 -6 -12 8 -22 31 l-19 41 -82
0 c-90 0 -94 -3 -96 -63 0 -18 -4 -41 -9 -52 -5 -12 -6 7 -3 48 l6 67 -82 0
c-75 0 -81 -2 -81 -21z m507 -45 c-3 -3 -12 -4 -19 -1 -8 3 -5 6 6 6 11 1 17
-2 13 -5z m-50 -10 c-3 -3 -12 -4 -19 -1 -8 3 -5 6 6 6 11 1 17 -2 13 -5z
m-370 -70 c-3 -3 -12 -4 -19 -1 -8 3 -5 6 6 6 11 1 17 -2 13 -5z"/>
<path d="M4483 3500 c-7 -10 -10 -26 -7 -35 8 -20 40 -14 36 6 -3 10 1 9 15
-4 14 -14 15 -21 5 -37 -14 -22 -6 -50 14 -50 8 0 17 7 20 15 6 14 8 13 20 -2
11 -15 10 -22 -2 -40 -9 -14 -10 -23 -4 -23 6 0 8 -4 5 -10 -10 -15 12 -12 28
5 13 13 17 13 28 -1 10 -12 10 -20 1 -35 -15 -23 -15 -32 -2 -24 6 3 7 -1 4
-9 -8 -20 5 -20 27 0 16 14 18 14 28 -4 8 -15 7 -23 -4 -32 -8 -7 -15 -16 -15
-20 0 -14 32 -21 45 -10 9 7 16 6 25 -5 11 -13 9 -19 -6 -37 -17 -19 -17 -21
-2 -15 13 4 15 2 11 -10 -5 -13 -3 -14 17 -3 30 16 50 -2 32 -30 -15 -25 -15
-33 0 -24 8 5 9 2 5 -11 -7 -16 -6 -16 16 -2 21 14 24 14 35 -3 8 -13 7 -23
-4 -39 -10 -13 -11 -21 -4 -21 6 0 8 -4 5 -10 -7 -11 6 -13 29 -4 9 3 13 11
10 18 -4 6 1 4 11 -5 14 -14 15 -20 5 -39 -10 -18 -9 -21 1 -15 9 6 11 3 6 -8
-7 -18 8 -24 18 -7 9 15 22 12 29 -6 4 -9 1 -24 -6 -32 -11 -13 -10 -15 6 -9
16 6 17 5 6 -8 -8 -9 -8 -15 -2 -15 6 0 14 5 18 11 4 7 19 -2 40 -22 37 -36
46 -27 13 15 -11 14 -17 31 -13 37 4 7 3 9 -2 6 -5 -3 -18 4 -27 16 -10 12
-29 36 -43 52 -14 17 -33 41 -42 55 -9 14 -25 31 -34 38 -10 7 -18 20 -18 28
0 8 -5 14 -11 14 -5 0 -7 5 -3 12 4 6 3 8 -4 4 -13 -8 -43 33 -35 48 3 6 3 8
-2 4 -7 -7 -17 1 -44 35 -11 14 -11 20 0 35 11 14 11 15 -1 5 -14 -13 -39 -19
-27 -7 3 4 -5 16 -19 26 -14 11 -23 22 -20 25 2 3 -7 18 -22 33 -43 45 -51 57
-44 66 4 4 2 4 -5 0 -12 -7 -40 31 -35 47 1 5 -3 5 -9 1 -9 -5 -10 -2 -6 10 4
9 3 15 -2 12 -4 -3 -16 3 -26 14 -15 17 -16 22 -4 37 13 16 12 17 -3 4 -12 -9
-18 -10 -18 -2 0 18 -24 13 -37 -9z"/>
<path d="M4611 3486 c-12 -14 -5 -26 16 -26 15 0 18 26 4 34 -5 3 -14 0 -20
-8z"/>
<path d="M4665 3420 c-10 -17 12 -37 25 -24 8 8 6 15 -4 23 -10 9 -16 9 -21 1z"/>
<path d="M4716 3352 c-2 -4 -1 -14 4 -22 7 -11 12 -12 21 -3 6 6 8 16 5 22 -8
13 -23 14 -30 3z"/>
<path d="M4767 3283 c-11 -10 13 -32 29 -26 11 4 12 9 3 19 -13 15 -22 18 -32
7z"/>
<path d="M6163 3244 c-43 -22 -66 -59 -67 -110 -1 -52 17 -79 102 -146 49 -39
62 -46 62 -31 0 10 -21 32 -51 52 -68 46 -89 75 -89 123 0 56 43 98 100 98 29
0 40 4 38 13 -7 18 -59 19 -95 1z"/>
<path d="M4826 3211 c-3 -5 1 -14 8 -20 16 -13 32 2 21 19 -8 12 -22 13 -29 1z"/>
<path d="M4881 3146 c-12 -14 -5 -26 16 -26 15 0 18 26 4 34 -5 3 -14 0 -20
-8z"/>
<path d="M4935 3080 c-10 -17 12 -37 25 -24 8 8 6 15 -4 23 -10 9 -16 9 -21 1z"/>
<path d="M5670 2995 c-13 -21 -31 -66 -40 -99 -14 -57 -17 -61 -52 -69 -34 -8
-41 -5 -88 32 -28 22 -68 43 -88 47 -20 4 -42 14 -49 23 -10 13 -12 5 -13 -45
0 -94 8 -121 44 -142 25 -15 35 -30 44 -68 7 -27 14 -57 16 -66 3 -9 -2 -19
-10 -22 -15 -6 -65 63 -101 138 -15 31 -21 36 -52 36 -57 0 -65 -10 -46 -56 9
-21 29 -55 45 -75 26 -32 28 -41 20 -69 -5 -18 -7 -36 -4 -41 2 -4 -12 -11
-33 -14 -21 -3 -51 -12 -67 -19 l-30 -13 57 -34 c63 -37 71 -54 29 -64 -16 -3
-58 -33 -93 -65 -35 -33 -71 -62 -81 -65 -9 -3 -19 -12 -21 -20 -8 -19 43 -35
114 -35 50 0 57 -2 52 -17 -6 -14 2 -15 70 -9 109 10 117 4 117 -88 0 -40 3
-75 6 -79 4 -3 16 1 29 9 20 13 23 13 29 -1 3 -9 6 -32 6 -51 0 -21 4 -33 10
-29 6 3 10 26 10 51 0 37 6 51 36 84 23 25 45 40 60 40 25 0 28 -6 24 -50 -1
-20 1 -23 11 -12 23 22 38 13 73 -41 38 -60 81 -98 101 -91 7 3 19 28 26 55 7
27 15 49 19 49 3 0 16 -7 28 -16 12 -8 26 -13 31 -9 6 3 28 2 51 -1 29 -5 44
-13 50 -28 8 -21 8 -21 17 3 14 36 -10 106 -46 137 -20 16 -28 31 -24 41 7 19
-23 44 -43 36 -8 -3 -14 0 -14 5 0 6 -11 23 -26 37 -14 14 -22 29 -19 35 3 5
-1 22 -9 38 l-15 29 40 6 c53 7 118 -16 158 -55 38 -37 31 -50 -35 -58 l-45
-5 30 -31 c33 -34 155 -97 209 -109 26 -5 32 -4 32 11 0 25 -79 158 -138 233
-27 34 -11 96 32 122 52 30 146 132 146 157 0 19 -5 22 -35 22 -68 0 -136 -21
-147 -45 -6 -12 -22 -28 -37 -35 l-26 -13 54 -24 c29 -13 52 -25 50 -27 -2 -2
-35 4 -74 14 -38 11 -83 19 -100 19 -28 1 -25 4 38 42 37 23 67 47 67 55 0 7
16 25 36 40 40 31 103 119 128 178 9 21 16 40 16 42 0 8 -97 -8 -136 -22 -29
-10 -46 -24 -54 -43 -7 -19 -26 -35 -53 -47 -23 -9 -45 -19 -48 -21 -4 -2 -4
16 -2 41 3 25 3 56 -1 70 l-6 24 -30 -30 c-19 -18 -36 -28 -46 -24 -9 3 -20 6
-25 6 -5 0 -9 26 -9 58 0 57 -12 114 -30 142 -8 13 -12 12 -31 -7 l-22 -21
-22 25 -22 26 -23 -38z m-236 -241 c9 -8 16 -23 16 -32 -1 -14 -5 -12 -20 7
-30 35 -26 56 4 25z m411 -104 c-3 -5 -11 -10 -16 -10 -6 0 -7 5 -4 10 3 6 11
10 16 10 6 0 7 -4 4 -10z m21 -46 c-3 -9 -6 -21 -6 -28 0 -7 -6 -21 -14 -32
-14 -18 -15 -18 -12 6 5 40 17 70 28 70 6 0 7 -7 4 -16z m-176 -77 c0 -4 4 -6
9 -3 5 4 7 -3 4 -13 -5 -21 -39 -35 -48 -20 -3 5 -3 25 1 45 6 34 8 36 20 19
8 -10 14 -23 14 -28z m-79 -47 c13 -10 18 -19 12 -20 -7 0 -13 -9 -13 -19 0
-11 -5 -23 -11 -26 -12 -8 -89 40 -89 55 0 15 -36 12 -50 -4 -12 -15 -7 -21
45 -60 34 -26 -5 -19 -54 9 -23 14 -50 25 -58 25 -9 0 -13 6 -9 15 7 20 -14
19 -44 -2 -22 -16 -70 -25 -70 -13 0 17 74 44 140 50 143 13 176 12 201 -10z
m153 -11 c-3 -5 10 -15 28 -23 26 -11 29 -15 13 -16 -11 -1 -23 -2 -26 -2 -3
1 -25 2 -48 3 -47 3 -52 13 -15 32 29 15 56 18 48 6z m-75 -48 c8 -15 7 -20
-6 -25 -21 -8 -38 8 -30 28 8 22 24 20 36 -3z m101 -66 c38 -36 53 -81 41
-120 -5 -16 -10 -25 -10 -18 -1 6 -11 15 -23 19 -27 8 -138 114 -138 131 0 34
91 25 130 -12z m-410 -24 c0 -5 14 -11 30 -15 l31 -6 -18 -27 c-36 -58 -57
-67 -91 -40 -9 7 -9 13 -1 23 14 17 4 48 -13 39 -7 -4 -2 3 11 14 24 22 51 28
51 12z m213 -78 c19 -40 16 -56 -15 -67 -23 -8 -32 -6 -52 13 -18 17 -25 19
-30 9 -3 -7 -3 -2 0 12 4 14 11 30 17 35 7 7 8 6 3 -2 -10 -19 2 -16 31 7 32
25 30 25 46 -7z m207 -42 c0 -5 -6 -11 -13 -14 -8 -3 -14 1 -14 9 0 8 6 14 14
14 7 0 13 -4 13 -9z m-25 -271 c3 -5 1 -10 -4 -10 -6 0 -11 5 -11 10 0 6 2 10
4 10 3 0 8 -4 11 -10z"/>
<path d="M4986 3012 c-2 -4 -1 -14 4 -22 7 -11 12 -12 21 -3 6 6 8 16 5 22 -8
13 -23 14 -30 3z"/>
<path d="M5036 2941 c-3 -5 1 -14 8 -20 16 -13 32 2 21 19 -8 12 -22 13 -29 1z"/>
<path d="M4412 2888 c-19 -19 -14 -56 9 -68 16 -9 26 -8 45 5 39 26 26 75 -21
75 -12 0 -26 -5 -33 -12z m45 -4 c-3 -3 -12 -4 -19 -1 -8 3 -5 6 6 6 11 1 17
-2 13 -5z"/>
<path d="M5490 1896 c0 -8 5 -18 10 -21 6 -3 10 3 10 14 0 12 -4 21 -10 21 -5
0 -10 -6 -10 -14z"/>
<path d="M5858 1766 c-207 -66 -383 -127 -392 -135 -9 -7 -16 -23 -16 -36 0
-12 52 -188 115 -391 63 -203 161 -519 217 -701 57 -183 106 -333 109 -333 4
0 10 25 14 55 3 30 10 53 15 50 7 -5 308 -55 329 -55 7 0 11 31 11 80 0 74 -1
80 -22 85 -47 10 -291 45 -294 42 -2 -2 -8 -28 -14 -57 -6 -29 -12 -55 -13
-57 -2 -2 -63 194 -135 434 -227 754 -239 797 -228 805 6 3 119 39 251 78 132
40 249 80 261 89 12 9 26 27 32 41 9 24 10 24 11 3 2 -32 15 -35 76 -17 70 20
68 29 -2 11 l-51 -14 -16 34 c-18 38 -24 34 87 69 31 10 57 24 57 31 0 7 -6
13 -12 12 -7 -1 -182 -56 -390 -123z"/>
<path d="M6118 1673 c-22 -5 -22 -23 1 -87 22 -64 36 -73 95 -56 43 12 46 15
46 47 0 32 -2 35 -24 29 -13 -3 -31 -9 -40 -12 -12 -4 -18 5 -27 40 -11 45
-16 48 -51 39z"/>
<path d="M6077 1293 c-4 -3 -7 -16 -7 -28 0 -20 8 -23 83 -33 108 -16 107 -16
107 12 0 21 -7 25 -82 40 -95 18 -93 18 -101 9z"/>
<path d="M6031 1005 c-7 -42 -11 -78 -9 -80 2 -2 46 -11 98 -19 52 -9 105 -19
118 -21 21 -5 22 -3 22 78 l0 84 -77 12 c-43 7 -92 15 -109 17 l-31 6 -12 -77z"/>
<path d="M5180 943 c-41 -14 -77 -27 -79 -29 -5 -4 29 -103 38 -108 4 -3 20 1
36 8 17 8 56 22 87 32 63 20 60 12 38 94 -9 33 -30 34 -120 3z"/>
<path d="M5981 684 c-7 -42 -9 -80 -4 -84 6 -6 251 -50 278 -50 3 0 5 37 5 83
l0 82 -122 19 c-68 10 -128 21 -134 23 -7 2 -16 -25 -23 -73z"/>
<path d="M4807 403 c-12 -11 -8 -23 8 -23 9 0 26 -24 41 -59 l26 -59 56 -8
c57 -9 57 -9 85 -66 l29 -56 60 -7 61 -7 26 -59 26 -59 70 1 70 2 -56 9 -56
10 -29 61 -29 62 -62 9 -62 9 -25 58 c-23 53 -29 59 -54 59 -73 0 -87 9 -114
71 -19 42 -32 59 -45 59 -11 0 -23 -3 -26 -7z"/>
<path d="M4927 369 c5 -17 38 -39 59 -39 10 0 -7 20 -35 40 l-29 20 5 -21z"/>
<path d="M4750 325 c-8 -9 -6 -14 5 -19 8 -3 28 -31 43 -63 l27 -58 58 -9 c58
-8 58 -8 82 -61 24 -55 31 -60 107 -71 34 -4 49 -12 53 -25 4 -10 15 -19 26
-19 18 0 18 2 3 34 -15 31 -22 34 -78 42 l-61 9 -27 57 -27 56 -57 8 -57 7
-26 58 c-25 58 -51 78 -71 54z"/>
<path d="M5620 320 c-25 -25 -14 -61 23 -74 51 -19 80 47 35 78 -29 20 -34 20
-58 -4z"/>
<path d="M4687 253 c-12 -11 -8 -23 8 -23 9 0 26 -24 41 -60 24 -54 30 -60 63
-65 78 -13 81 -15 103 -60 19 -39 26 -45 52 -44 17 1 24 3 14 6 -9 2 -27 28
-40 58 -22 52 -25 55 -68 60 -73 11 -76 13 -103 75 -18 43 -31 60 -45 60 -10
0 -22 -3 -25 -7z"/>
<path d="M5090 252 c0 -19 27 -44 44 -41 15 3 12 8 -13 27 -17 12 -31 19 -31
14z"/>
<path d="M4627 173 c-12 -11 -8 -23 9 -23 9 0 25 -23 41 -59 l25 -59 57 -10
c31 -5 66 -13 79 -17 13 -4 22 -3 22 3 0 22 -31 39 -80 46 -51 7 -52 7 -78 66
-20 45 -32 59 -48 60 -11 0 -24 -3 -27 -7z"/>
<path d="M5270 112 c0 -13 24 -39 43 -45 27 -10 20 7 -13 31 -16 13 -30 19
-30 14z"/>
<path d="M4571 96 c-10 -11 -8 -16 6 -20 11 -3 25 -22 32 -41 8 -23 19 -35 31
-35 19 0 19 1 -1 47 -26 62 -46 76 -68 49z"/>
<path d="M5880 93 c0 -10 -3 -35 -6 -55 l-7 -38 197 0 196 0 0 24 c0 28 9 25
-190 56 -74 11 -147 23 -162 26 -22 4 -28 2 -28 -13z"/>
<path d="M4507 24 c-15 -15 -6 -24 24 -24 20 0 29 4 27 13 -5 14 -40 21 -51
11z"/>
</g>
</svg>
